<?xml version="1.0" encoding="UTF-8"?>
<svg xmlns="http://www.w3.org/2000/svg" xmlns:xlink="http://www.w3.org/1999/xlink" viewBox="0 0 48 48" width="48px" height="48px">
<g id="surface12033635">
<path style=" stroke:none;fill-rule:nonzero;fill:rgb(38.82353%,55.29412%,100%);fill-opacity:1;" d="M 24 4 C 12.972656 4 4 12.972656 4 24 C 4 35.027344 12.972656 44 24 44 C 35.027344 44 44 35.027344 44 24 C 44 12.972656 35.027344 4 24 4 Z M 24 7 C 33.40625 7 41 14.59375 41 24 C 41 32.378906 34.96875 39.304688 27 40.71875 L 27 29 L 30.625 29 C 31.128906 29 31.554688 28.621094 31.617188 28.121094 L 31.992188 25.121094 C 32.027344 24.839844 31.9375 24.554688 31.746094 24.335938 C 31.558594 24.121094 31.285156 24 31 24 L 27 24 L 27 20.5 C 27 19.398438 27.898438 18.5 29 18.5 L 31 18.5 C 31.550781 18.5 32 18.054688 32 17.5 L 32 14.125 C 32 13.605469 31.605469 13.175781 31.089844 13.128906 C 31.03125 13.125 29.621094 13 27.835938 13 C 23.425781 13 21 15.617188 21 20.367188 L 21 24 L 17 24 C 16.449219 24 16 24.445312 16 25 L 16 28 C 16 28.554688 16.449219 29 17 29 L 21 29 L 21 40.71875 C 13.03125 39.304688 7 32.378906 7 24 C 7 14.59375 14.59375 7 24 7 Z M 24 7 "/>
</g>
</svg>
